<svg width="55" height="40" viewBox="0 0 55 40" fill="none" xmlns="http://www.w3.org/2000/svg">
    <g clip-path="url(#clip0_1769_127509)">
        <path d="M0 8.65131V31.1934H5.45784V12.3333V8.65131H0Z" fill="#00C4C0"/>
        <path d="M14.9116 8.65145C14.9116 8.65145 7.69433 7.8033 5.45605 12.3334V18.5327C5.45605 17.8654 5.70093 13.008 10.8667 13.008C10.8667 13.008 14.9098 12.6029 14.9098 18.6105V31.1935H20.3676V14.093C20.3676 11.0874 17.5797 8.94623 14.9098 8.65145H14.9116Z" fill="#00C4C0"/>
        <path d="M46.226 30.2369V31.1936H40.7844V28.0469C38.8291 29.9946 36.1773 31.1936 33.2534 31.1936C27.2423 31.1936 22.3704 26.1336 22.3704 19.8909C22.3704 19.8909 22.1799 10.223 31.9583 8.6678C31.9583 8.6678 37.3654 7.74731 42.1194 10.7131C42.1194 10.7131 50.2055 15.4802 54.809 31.1936H48.9921C48.9921 31.1936 43.4073 12.9212 33.9118 13.1093C30.1155 13.1093 27.0483 16.2108 27.1136 20.0103C27.1136 20.0609 27.1154 20.1133 27.1172 20.164C27.119 20.2237 27.1226 20.2833 27.1263 20.3448C27.1299 20.3955 27.1335 20.4461 27.1372 20.4949C27.1426 20.5618 27.1498 20.6269 27.1571 20.692C27.1625 20.73 27.1662 20.7698 27.1716 20.8078C27.1825 20.8874 27.1934 20.9651 27.2079 21.0429C27.2115 21.0628 27.2151 21.0827 27.2188 21.1026C27.7012 23.7338 29.7309 25.8605 32.3229 26.4844C32.332 26.4863 32.3429 26.4881 32.3519 26.4917C32.4408 26.5134 32.5297 26.5315 32.6204 26.5496C32.653 26.555 32.6857 26.5604 32.7183 26.5676C32.7891 26.5803 32.8598 26.5929 32.9305 26.602C32.9813 26.6092 33.0339 26.6147 33.0847 26.6219C33.1409 26.6291 33.1972 26.6364 33.2534 26.6418C33.3151 26.6472 33.3786 26.6526 33.442 26.6562C33.491 26.6599 33.54 26.6635 33.589 26.6653C33.6615 26.6689 33.7341 26.6689 33.8066 26.6707C33.8465 26.6707 33.8864 26.6725 33.9263 26.6725C34.0243 26.6725 34.1222 26.6689 34.2184 26.6653C34.2329 26.6653 34.2474 26.6653 34.2619 26.6653C34.3725 26.6599 34.4832 26.6508 34.5938 26.64C34.6265 26.6364 34.6573 26.6327 34.69 26.6291C34.7661 26.6201 34.8441 26.611 34.9203 26.6002C34.962 26.5948 35.0019 26.5857 35.0437 26.5803C35.109 26.5694 35.1761 26.5586 35.2414 26.5459C35.2867 26.5369 35.3302 26.5278 35.3738 26.517C35.4354 26.5043 35.4971 26.4899 35.557 26.4754C35.6023 26.4646 35.6477 26.4519 35.693 26.4392C35.7511 26.423 35.8091 26.4067 35.8671 26.3904C35.9125 26.3759 35.9596 26.3615 36.005 26.347C36.0612 26.3289 36.1156 26.3108 36.1719 26.2909C36.2172 26.2747 36.2644 26.2584 36.3097 26.2403C36.3623 26.2204 36.4167 26.1987 36.4693 26.177C36.5147 26.1589 36.5618 26.139 36.6072 26.1191C36.658 26.0974 36.7088 26.0739 36.7595 26.0504C36.8049 26.0287 36.8521 26.0088 36.8974 25.9853C36.9446 25.9618 36.9917 25.9365 37.0389 25.913C37.086 25.8895 37.1332 25.866 37.1785 25.8406C37.2221 25.8171 37.2638 25.7918 37.3055 25.7683C37.3545 25.7394 37.4035 25.7122 37.4524 25.6833C37.4706 25.6725 37.4887 25.6598 37.5068 25.649C37.6411 25.5658 37.7699 25.479 37.8968 25.3867C37.915 25.3741 37.9349 25.3614 37.9531 25.3469C38.0111 25.3035 38.0673 25.2601 38.1236 25.2167C38.1489 25.1968 38.1725 25.1788 38.1979 25.1589C38.2523 25.1137 38.3067 25.0684 38.3594 25.0232C38.3829 25.0015 38.4083 24.9816 38.4319 24.9599C38.4845 24.9129 38.5371 24.8641 38.5879 24.8153C38.6097 24.7936 38.6332 24.7719 38.655 24.752C38.7076 24.7013 38.7584 24.6507 38.8074 24.5983C38.8273 24.5766 38.8473 24.5567 38.8672 24.535C38.918 24.4807 38.9688 24.4265 39.0178 24.3704C39.0341 24.3505 39.0522 24.3306 39.0686 24.3125C39.1193 24.2528 39.1701 24.1932 39.2173 24.1335C39.23 24.1172 39.2427 24.1009 39.2554 24.0847C39.3062 24.0196 39.357 23.9526 39.4059 23.8857C39.4132 23.8767 39.4186 23.8658 39.4259 23.8568C39.8848 23.222 40.2367 22.5041 40.4543 21.7301C40.4543 21.7247 40.458 21.7192 40.4598 21.7138C40.4852 21.6216 40.5087 21.5294 40.5305 21.4353C40.5323 21.4281 40.5341 21.419 40.536 21.4118C40.5577 21.3196 40.5759 21.2255 40.594 21.1315C40.6448 20.8584 40.6774 20.5781 40.6956 20.296C40.6956 20.296 43.3565 22.8513 46.2205 30.2442L46.226 30.2369Z" fill="url(#paint0_linear_1769_127509)"/>
    </g>
    <defs>
        <linearGradient id="paint0_linear_1769_127509" x1="56.5014" y1="30.8337" x2="46.2754" y2="23.1185" gradientUnits="userSpaceOnUse">
            <stop stop-color="#00C4C0" stop-opacity="0"/>
            <stop offset="1" stop-color="#00C4C0"/>
        </linearGradient>
        <clipPath id="clip0_1769_127509">
            <rect width="55" height="40" fill="white"/>
        </clipPath>
    </defs>
</svg>
